<svg width="16" height="16" viewBox="0 0 16 16" fill="none" xmlns="http://www.w3.org/2000/svg">
<g clip-path="url(#clip0_952_1366)">
<path d="M8.13672 4.00779C7.69922 3.98435 7.25391 4.05467 6.83594 4.23045C5.71875 4.69138 4.98438 5.78904 4.98438 6.99998H6.98438C6.98438 6.59373 7.22656 6.23045 7.60156 6.0742C7.97656 5.92185 8.40234 6.00388 8.69141 6.29295C8.98047 6.58201 9.0625 7.00779 8.91016 7.38279C8.75391 7.75779 8.39062 7.99998 7.98438 7.99998C7.43359 7.99998 6.98438 8.4492 6.98438 8.99998V11H8.98438V9.82029C9.76953 9.53904 10.4258 8.94529 10.7578 8.14842C11.2187 7.03123 10.9609 5.73435 10.1055 4.87888C9.57031 4.34373 8.86328 4.04295 8.13672 4.00779ZM7.98438 12C7.43359 12 6.98438 12.4492 6.98438 13C6.98438 13.5508 7.43359 14 7.98438 14C8.53516 14 8.98438 13.5508 8.98438 13C8.98438 12.4492 8.53516 12 7.98438 12Z" fill="#2E3436"/>
<path d="M6 0C5.44531 0 5 0.445312 5 1V4C5 4.10547 5.01953 4.20312 5.04688 4.30078C5.43359 3.87891 5.91016 3.53906 6.45703 3.3125C7.01562 3.08203 7.60938 2.98828 8.1875 3.01953C9.15234 3.06641 10.0938 3.46875 10.8047 4.17969C10.8516 4.22656 10.8945 4.27734 10.9414 4.32812C10.9766 4.22656 11 4.11719 11 4V1C11 0.445312 10.5547 0 10 0H6ZM7.98828 6.98438C7.98828 6.98438 7.98828 6.98828 7.98047 6.99219C7.96484 6.99609 7.97266 6.98047 7.97266 7C7.96484 7.00781 7.95703 7.01562 7.94922 7.02734C7.96094 7.02734 7.97266 7.01172 7.98438 7.01172C8 7.01172 7.98828 7.01953 7.99219 7.00391C8 6.98828 8.00391 7.00391 7.99219 6.99219C7.98438 6.98828 7.98828 6.98438 7.98828 6.98438ZM0 7V9H2V11H1C0.445312 11 0 11.4453 0 12V15C0 15.5547 0.445312 16 1 16H5C5.55469 16 6 15.5547 6 15V13.1133C5.99609 13.0781 5.99219 13.0391 5.99219 13C5.99219 12.9688 5.99609 12.9336 6 12.9023V12C6 11.4453 5.55469 11 5 11H4V9H5.99219C5.99219 8.62109 6.22656 8.30469 6.4375 7.98828H4.98438C4.72266 7.99219 4.46875 7.88672 4.28516 7.69922C4.09766 7.51562 3.99219 7.26172 3.99219 7H0ZM11.9688 7C11.9688 7.51562 11.875 8.03516 11.668 8.52734C11.6016 8.69531 11.5195 8.85156 11.4258 9H12V11H11C10.4453 11 10 11.4453 10 12V15C10 15.5547 10.4453 16 11 16H15C15.5547 16 16 15.5547 16 15V12C16 11.4453 15.5547 11 15 11H14V9H16V7H11.9688Z" fill="#2E3436" fill-opacity="0.34902"/>
</g>
<defs>
<clipPath id="clip0_952_1366">
<rect width="16" height="16" fill="white"/>
</clipPath>
</defs>
</svg>
