<svg width="16" height="16" viewBox="0 0 16 16" fill="none" xmlns="http://www.w3.org/2000/svg">
<g clip-path="url(#clip0_952_1449)">
<path d="M0.843687 15.3986L11.3437 5.39857C11.5429 5.21107 11.5507 4.89466 11.3632 4.69154C11.1718 4.49232 10.8554 4.48451 10.6562 4.67591L0.156187 14.6759C-0.0430319 14.8673 -0.0508439 15.1837 0.136656 15.3829C0.328062 15.5822 0.644468 15.59 0.843687 15.3986Z" fill="#222222"/>
<path d="M5.5 11.0391H9.5C9.77734 11.0391 10 10.8125 10 10.5391C10 10.2617 9.77734 10.0391 9.5 10.0391H5.5C5.22266 10.0391 5 10.2617 5 10.5391C5 10.8125 5.22266 11.0391 5.5 11.0391Z" fill="#222222"/>
<path d="M8 8.46094V5.53906C8 5.26172 7.77734 5.03906 7.5 5.03906C7.22266 5.03906 7 5.26172 7 5.53906V8.46094C7 8.73828 7.22266 8.96094 7.5 8.96094C7.77734 8.96094 8 8.73828 8 8.46094Z" fill="#222222"/>
<path d="M1 16H8C12.4141 16 16 12.4141 16 8V1C16 0.449219 15.5508 0 15 0H8C3.58594 0 0 3.58594 0 8V11C0 11.5508 0.449219 12 1 12C1.55078 12 2 11.5508 2 11V8C2 4.67578 4.67578 2 8 2H15L14 1V8C14 11.3242 11.3242 14 8 14H1C0.449219 14 0 14.4492 0 15C0 15.5508 0.449219 16 1 16Z" fill="#222222"/>
</g>
<defs>
<clipPath id="clip0_952_1449">
<rect width="16" height="16" fill="white"/>
</clipPath>
</defs>
</svg>
