<svg width="16" height="16" viewBox="0 0 16 16" fill="none" xmlns="http://www.w3.org/2000/svg">
<path d="M9.64062 1.07412C7.00781 0.839749 4.32421 1.121 2.5664 1.996C2.1289 2.21475 1.7539 2.46475 1.46093 2.8124C1.16796 3.16006 0.957026 3.65615 1.00781 4.16397C1.10546 5.17178 1.91015 5.72647 2.83984 6.13272C4.69921 6.9374 7.45312 7.17569 10.0391 6.88272C11.3359 6.73819 12.4336 6.46865 13.2969 6.07022C13.7266 5.86709 14.1055 5.63662 14.418 5.31631C14.7344 4.996 15 4.53115 15 3.9999C15 3.44912 14.5508 2.9999 14 2.9999C13.4492 2.9999 13 3.44912 13 3.9999C13 3.89444 13.0586 3.84756 12.9883 3.91787C12.9219 3.98819 12.7383 4.121 12.4531 4.25381C11.8906 4.51553 10.957 4.76553 9.8164 4.89444C7.53515 5.15225 4.90624 4.84756 3.63671 4.29678C3.11328 4.07022 3.12109 3.98037 3.10937 4.02334C3.18359 3.96084 3.2539 3.88662 3.45703 3.78897C4.55468 3.23819 7.13281 2.85928 9.46484 3.07022C10.0156 3.11709 10.5 2.71084 10.5469 2.16397C10.5703 1.89834 10.4883 1.63272 10.3203 1.42959C10.1484 1.22647 9.90624 1.09756 9.64062 1.07803V1.07412Z" fill="#222222"/>
<path d="M4.03506 7.52727C3.50771 7.37102 2.95303 7.67571 2.79678 8.20696C2.72256 8.46087 2.75381 8.73431 2.87881 8.96868C3.00771 9.19915 3.22256 9.37493 3.47646 9.44915C4.73818 9.81634 6.33193 9.99993 7.9999 9.99993C9.66787 9.99993 11.2616 9.81634 12.5233 9.44915C13.0546 9.2929 13.3593 8.73821 13.203 8.20696C13.0468 7.67571 12.4921 7.37102 11.9608 7.52727C10.9726 7.81634 9.51553 7.99993 7.9999 7.99993C6.48428 7.99993 5.02725 7.81634 4.03506 7.52727Z" fill="#222222"/>
<path d="M10.7657 10.6872C9.52355 10.9879 7.98058 11.0778 6.5587 10.9176C6.00792 10.8551 5.51573 11.2497 5.45323 11.8004C5.39073 12.3473 5.78917 12.8434 6.33605 12.9059C7.98839 13.0895 9.71886 12.9997 11.2306 12.6364C11.4923 12.5739 11.715 12.4098 11.8517 12.1833C11.9923 11.9567 12.0353 11.6872 11.9728 11.4254C11.9103 11.1676 11.7501 10.945 11.5235 10.8083C11.297 10.6715 11.0235 10.6286 10.7657 10.6872Z" fill="#222222"/>
<path d="M6.32415 13.8867C5.77727 13.8164 5.27727 14.2031 5.20306 14.75C5.17181 15.0117 5.24212 15.2812 5.40227 15.4882C5.56243 15.6992 5.80462 15.8398 6.06634 15.875C6.83587 15.9726 7.63665 16.0117 8.43743 15.9882C8.98821 15.9726 9.42181 15.5156 9.40618 14.9609C9.39446 14.4101 8.93352 13.9765 8.37884 13.9882C7.68352 14.0117 6.98431 13.9765 6.32415 13.8867Z" fill="#222222"/>
</svg>
