<svg width="512" height="512" viewBox="0 0 512 512" fill="none" xmlns="http://www.w3.org/2000/svg">
<g clip-path="url(#clip0_597_242)">
<path d="M223.731 1.88379H287.171C333.257 1.88379 367.666 1.88685 394.633 4.7373C421.564 7.58398 440.843 13.2527 456.752 24.4336C468.467 32.6672 478.668 42.8678 486.901 54.583C498.082 70.4918 503.752 89.7708 506.599 116.702C509.449 143.669 509.451 178.078 509.451 224.164V287.604C509.451 333.69 509.449 368.098 506.599 395.065C503.752 421.997 498.082 441.276 486.901 457.185C478.668 468.9 468.467 479.1 456.752 487.334C440.843 498.515 421.564 504.185 394.633 507.031C367.666 509.882 333.257 509.884 287.171 509.884H223.731C177.645 509.884 143.237 509.882 116.27 507.031C89.3382 504.185 70.0592 498.515 54.1504 487.334C42.4352 479.1 32.2346 468.9 24.001 457.185C12.8201 441.276 7.15136 421.997 4.30469 395.065C1.45424 368.098 1.45117 333.69 1.45117 287.604V224.164C1.45117 178.078 1.45424 143.669 4.30469 116.702C7.15136 89.7709 12.8201 70.4918 24.001 54.583C32.2346 42.8678 42.4352 32.6672 54.1504 24.4336C70.0591 13.2527 89.3383 7.58398 116.27 4.7373C143.237 1.88685 177.645 1.88379 223.731 1.88379Z" fill="url(#paint0_linear_597_242)"/>
<path d="M223.731 1.88379H287.171C333.257 1.88379 367.666 1.88685 394.633 4.7373C421.564 7.58398 440.843 13.2527 456.752 24.4336C468.467 32.6672 478.668 42.8678 486.901 54.583C498.082 70.4918 503.752 89.7708 506.599 116.702C509.449 143.669 509.451 178.078 509.451 224.164V287.604C509.451 333.69 509.449 368.098 506.599 395.065C503.752 421.997 498.082 441.276 486.901 457.185C478.668 468.9 468.467 479.1 456.752 487.334C440.843 498.515 421.564 504.185 394.633 507.031C367.666 509.882 333.257 509.884 287.171 509.884H223.731C177.645 509.884 143.237 509.882 116.27 507.031C89.3382 504.185 70.0592 498.515 54.1504 487.334C42.4352 479.1 32.2346 468.9 24.001 457.185C12.8201 441.276 7.15136 421.997 4.30469 395.065C1.45424 368.098 1.45117 333.69 1.45117 287.604V224.164C1.45117 178.078 1.45424 143.669 4.30469 116.702C7.15136 89.7709 12.8201 70.4918 24.001 54.583C32.2346 42.8678 42.4352 32.6672 54.1504 24.4336C70.0591 13.2527 89.3383 7.58398 116.27 4.7373C143.237 1.88685 177.645 1.88379 223.731 1.88379Z" stroke="url(#paint1_linear_597_242)" stroke-width="4"/>
<path d="M223.731 1.88379H287.171C333.257 1.88379 367.666 1.88685 394.633 4.7373C421.564 7.58398 440.843 13.2527 456.752 24.4336C468.467 32.6672 478.668 42.8678 486.901 54.583C498.082 70.4918 503.752 89.7708 506.599 116.702C509.449 143.669 509.451 178.078 509.451 224.164V287.604C509.451 333.69 509.449 368.098 506.599 395.065C503.752 421.997 498.082 441.276 486.901 457.185C478.668 468.9 468.467 479.1 456.752 487.334C440.843 498.515 421.564 504.185 394.633 507.031C367.666 509.882 333.257 509.884 287.171 509.884H223.731C177.645 509.884 143.237 509.882 116.27 507.031C89.3382 504.185 70.0592 498.515 54.1504 487.334C42.4352 479.1 32.2346 468.9 24.001 457.185C12.8201 441.276 7.15136 421.997 4.30469 395.065C1.45424 368.098 1.45117 333.69 1.45117 287.604V224.164C1.45117 178.078 1.45424 143.669 4.30469 116.702C7.15136 89.7709 12.8201 70.4918 24.001 54.583C32.2346 42.8678 42.4352 32.6672 54.1504 24.4336C70.0591 13.2527 89.3383 7.58398 116.27 4.7373C143.237 1.88685 177.645 1.88379 223.731 1.88379Z" stroke="url(#paint2_linear_597_242)" stroke-width="4"/>
<path d="M223.731 1.88379H287.171C333.257 1.88379 367.666 1.88685 394.633 4.7373C421.564 7.58398 440.843 13.2527 456.752 24.4336C468.467 32.6672 478.668 42.8678 486.901 54.583C498.082 70.4918 503.752 89.7708 506.599 116.702C509.449 143.669 509.451 178.078 509.451 224.164V287.604C509.451 333.69 509.449 368.098 506.599 395.065C503.752 421.997 498.082 441.276 486.901 457.185C478.668 468.9 468.467 479.1 456.752 487.334C440.843 498.515 421.564 504.185 394.633 507.031C367.666 509.882 333.257 509.884 287.171 509.884H223.731C177.645 509.884 143.237 509.882 116.27 507.031C89.3382 504.185 70.0592 498.515 54.1504 487.334C42.4352 479.1 32.2346 468.9 24.001 457.185C12.8201 441.276 7.15136 421.997 4.30469 395.065C1.45424 368.098 1.45117 333.69 1.45117 287.604V224.164C1.45117 178.078 1.45424 143.669 4.30469 116.702C7.15136 89.7709 12.8201 70.4918 24.001 54.583C32.2346 42.8678 42.4352 32.6672 54.1504 24.4336C70.0591 13.2527 89.3383 7.58398 116.27 4.7373C143.237 1.88685 177.645 1.88379 223.731 1.88379Z" stroke="url(#paint3_linear_597_242)" stroke-width="4"/>
<path d="M223.731 1.88379H287.171C333.257 1.88379 367.666 1.88685 394.633 4.7373C421.564 7.58398 440.843 13.2527 456.752 24.4336C468.467 32.6672 478.668 42.8678 486.901 54.583C498.082 70.4918 503.752 89.7708 506.599 116.702C509.449 143.669 509.451 178.078 509.451 224.164V287.604C509.451 333.69 509.449 368.098 506.599 395.065C503.752 421.997 498.082 441.276 486.901 457.185C478.668 468.9 468.467 479.1 456.752 487.334C440.843 498.515 421.564 504.185 394.633 507.031C367.666 509.882 333.257 509.884 287.171 509.884H223.731C177.645 509.884 143.237 509.882 116.27 507.031C89.3382 504.185 70.0592 498.515 54.1504 487.334C42.4352 479.1 32.2346 468.9 24.001 457.185C12.8201 441.276 7.15136 421.997 4.30469 395.065C1.45424 368.098 1.45117 333.69 1.45117 287.604V224.164C1.45117 178.078 1.45424 143.669 4.30469 116.702C7.15136 89.7709 12.8201 70.4918 24.001 54.583C32.2346 42.8678 42.4352 32.6672 54.1504 24.4336C70.0591 13.2527 89.3383 7.58398 116.27 4.7373C143.237 1.88685 177.645 1.88379 223.731 1.88379Z" stroke="url(#paint4_linear_597_242)" stroke-width="4"/>
<path d="M98.3692 83.7539C106.377 83.7541 112.869 90.2459 112.869 98.2539V325.514C112.869 346.665 112.9 361.07 114.351 371.861C115.745 382.235 118.209 387.073 121.51 390.373C124.81 393.673 129.648 396.137 140.022 397.531C150.813 398.982 165.218 399.014 186.369 399.014H413.629C421.637 399.014 428.129 405.506 428.129 413.514C428.129 421.521 421.637 428.013 413.629 428.014H186.369C166.038 428.014 149.33 428.044 136.157 426.273C122.568 424.446 110.59 420.466 101.003 410.879C91.4165 401.292 87.4365 389.315 85.6094 375.726C83.8384 362.553 83.8692 345.845 83.8692 325.514V98.2539C83.8692 90.2458 90.361 83.7539 98.3692 83.7539ZM413.63 128.097C421.638 128.097 428.13 134.589 428.13 142.597C428.13 150.605 421.638 157.097 413.63 157.097C371.374 157.097 348.656 169.383 334.093 185.798C318.579 203.285 310.657 227.025 301.584 254.583C292.929 280.872 283.154 310.866 262.318 333.695C240.595 357.499 208.53 372 158.917 372C150.909 372 144.417 365.508 144.417 357.5C144.417 349.492 150.909 343 158.917 343C202.309 343 225.847 330.637 240.897 314.146C256.836 296.682 265.006 272.95 274.039 245.514C282.654 219.346 292.165 189.36 312.399 166.553C333.585 142.673 364.932 128.097 413.63 128.097Z" fill="url(#paint5_linear_597_242)"/>
</g>
<defs>
<linearGradient id="paint0_linear_597_242" x1="255.451" y1="-0.116211" x2="255.451" y2="511.884" gradientUnits="userSpaceOnUse">
<stop stop-color="#212121"/>
<stop offset="1" stop-color="#040404"/>
</linearGradient>
<linearGradient id="paint1_linear_597_242" x1="255.451" y1="-0.116211" x2="255.451" y2="511.884" gradientUnits="userSpaceOnUse">
<stop stop-color="white" stop-opacity="0.48"/>
<stop offset="0.0354618" stop-color="white" stop-opacity="0"/>
</linearGradient>
<linearGradient id="paint2_linear_597_242" x1="255.451" y1="511.884" x2="255.451" y2="-0.116211" gradientUnits="userSpaceOnUse">
<stop stop-color="white" stop-opacity="0.48"/>
<stop offset="0.0354618" stop-color="white" stop-opacity="0"/>
</linearGradient>
<linearGradient id="paint3_linear_597_242" x1="255.451" y1="-0.116211" x2="255.451" y2="511.884" gradientUnits="userSpaceOnUse">
<stop stop-color="white" stop-opacity="0.48"/>
<stop offset="0.0354618" stop-color="white" stop-opacity="0"/>
</linearGradient>
<linearGradient id="paint4_linear_597_242" x1="255.451" y1="511.884" x2="255.451" y2="-0.116211" gradientUnits="userSpaceOnUse">
<stop stop-color="white" stop-opacity="0.48"/>
<stop offset="0.0354618" stop-color="white" stop-opacity="0"/>
</linearGradient>
<linearGradient id="paint5_linear_597_242" x1="256" y1="83.7539" x2="256" y2="428.014" gradientUnits="userSpaceOnUse">
<stop stop-color="white"/>
<stop offset="1" stop-color="#999999" stop-opacity="0.35"/>
</linearGradient>
<clipPath id="clip0_597_242">
<rect width="512" height="512" fill="white"/>
</clipPath>
</defs>
</svg>
