<svg width="352" height="316" viewBox="0 0 352 316" fill="none" xmlns="http://www.w3.org/2000/svg">
<g filter="url(#filter0_i_37_145)">
<path d="M0 62.3C0 36.7206 0 23.931 6.36476 14.8748C8.6888 11.568 11.568 8.6888 14.8748 6.36476C23.931 0 36.7206 0 62.3 0H135.884C145.235 0 149.91 0 153.997 1.71637C155.515 2.35399 156.957 3.16002 158.295 4.11934C161.898 6.70168 164.346 10.6845 169.244 18.65L171.565 22.4259C174.236 26.7708 175.572 28.9432 177.537 30.3518C178.267 30.875 179.053 31.3147 179.881 31.6625C182.111 32.5987 184.661 32.5987 189.761 32.5987H288.898C314.477 32.5987 327.267 32.5987 336.323 38.9634C339.63 41.2875 342.509 44.1667 344.833 47.4735C351.198 56.5296 351.198 69.3193 351.198 94.8987V253.663C351.198 279.242 351.198 292.032 344.833 301.088C342.509 304.395 339.63 307.274 336.323 309.598C327.267 315.963 314.477 315.963 288.898 315.963H62.3001C36.7207 315.963 23.931 315.963 14.8748 309.598C11.568 307.274 8.6888 304.395 6.36476 301.088C0 292.032 0 279.242 0 253.663V62.3Z" fill="url(#paint0_linear_37_145)"/>
</g>
<g filter="url(#filter1_i_37_145)">
<path d="M0.836119 131.762C0.836119 114.4 0.836119 105.719 4.21492 99.088C7.18699 93.255 11.9294 88.5126 17.7624 85.5405C24.3937 82.1617 33.0745 82.1617 50.4361 82.1617H301.597C318.959 82.1617 327.64 82.1617 334.271 85.5405C340.104 88.5126 344.846 93.255 347.818 99.088C351.197 105.719 351.197 114.4 351.197 131.762V266.363C351.197 283.725 351.197 292.406 347.818 299.037C344.846 304.87 340.104 309.612 334.271 312.584C327.64 315.963 318.959 315.963 301.597 315.963H50.4361C33.0745 315.963 24.3937 315.963 17.7624 312.584C11.9294 309.612 7.18699 304.87 4.21492 299.037C0.836119 292.406 0.836119 283.725 0.836119 266.363L0.836119 131.762Z" fill="url(#paint1_linear_37_145)"/>
</g>
<path fill-rule="evenodd" clip-rule="evenodd" d="M199.576 131.634C225.432 131.634 238.36 131.634 247.036 138.812C248.551 140.065 249.946 141.458 251.199 142.974C258.377 151.65 258.376 164.578 258.376 190.434V207.691C258.376 233.547 258.377 246.475 251.199 255.151L250.723 255.714C249.595 257.013 248.362 258.217 247.036 259.313C238.902 266.042 227.032 266.463 204.275 266.489H147.758C125.001 266.463 113.13 266.042 104.996 259.313C103.67 258.217 102.438 257.013 101.311 255.714L100.834 255.151C93.6565 246.475 93.6563 233.547 93.6563 207.691V190.434C93.6562 164.982 93.6565 152.057 100.503 143.384L100.834 142.974C101.931 141.648 103.135 140.415 104.434 139.288L104.996 138.812C113.13 132.083 125.001 131.662 147.758 131.636L199.576 131.634ZM152.456 140.634C139.306 140.634 130.24 140.648 123.346 141.468C116.653 142.263 113.198 143.708 110.733 145.746C109.654 146.639 108.661 147.632 107.769 148.711C105.73 151.175 104.286 154.63 103.49 161.323C102.671 168.217 102.656 177.284 102.656 190.434V207.691C102.656 220.841 102.671 229.908 103.49 236.802C104.286 243.494 105.73 246.95 107.769 249.414C108.661 250.493 109.654 251.486 110.733 252.379C113.198 254.417 116.653 255.862 123.346 256.657C130.24 257.477 139.306 257.491 152.456 257.491H199.576C212.726 257.491 221.793 257.477 228.687 256.657C235.38 255.862 238.836 254.418 241.3 252.379C242.379 251.486 243.372 250.493 244.265 249.414C246.303 246.95 247.747 243.494 248.542 236.802C249.361 229.908 249.376 220.841 249.376 207.691V190.434C249.376 177.284 249.361 168.217 248.542 161.323C247.747 154.631 246.303 151.175 244.265 148.711C243.372 147.632 242.379 146.639 241.3 145.746C238.836 143.707 235.38 142.263 228.687 141.468C221.793 140.648 212.726 140.634 199.576 140.634H152.456Z" fill="url(#paint2_linear_37_145)"/>
<path d="M154.108 197.864C154.108 189.96 154.108 186.009 156.302 183.356C156.685 182.893 157.111 182.467 157.574 182.084C160.227 179.89 164.178 179.89 172.082 179.89H186.486C194.389 179.89 198.341 179.89 200.993 182.084C201.456 182.467 201.882 182.893 202.265 183.356C204.459 186.009 204.459 189.96 204.459 197.864V203.139C204.459 211.043 204.459 214.994 202.265 217.647C201.882 218.11 201.456 218.536 200.993 218.919C198.341 221.113 194.389 221.113 186.486 221.113H172.082C164.178 221.113 160.227 221.113 157.574 218.919C157.111 218.536 156.685 218.11 156.302 217.647C154.108 214.994 154.108 211.043 154.108 203.139V197.864Z" fill="url(#paint3_linear_37_145)" fill-opacity="0.5"/>
<path d="M114.643 179.89C114.643 170.256 114.643 165.439 117.317 162.207C117.784 161.642 118.303 161.123 118.868 160.656C122.101 157.981 126.917 157.981 136.551 157.981H154.108C163.742 157.981 168.559 157.981 171.791 160.656C172.356 161.123 172.875 161.642 173.342 162.207C176.017 165.439 176.017 170.256 176.017 179.89L176.017 186.32C176.017 195.954 176.017 200.771 173.342 204.003C172.875 204.568 172.356 205.087 171.791 205.554C168.559 208.229 163.742 208.229 154.108 208.229H136.551C126.917 208.229 122.101 208.229 118.868 205.554C118.303 205.087 117.784 204.568 117.317 204.003C114.643 200.771 114.643 195.954 114.643 186.32V179.89Z" fill="url(#paint4_linear_37_145)"/>
<path d="M117.022 242.943C117.022 239.559 119.765 236.816 123.149 236.816H228.884C232.268 236.816 235.011 239.559 235.011 242.943C235.011 246.328 232.268 249.071 228.884 249.071H123.149C119.765 249.071 117.022 246.328 117.022 242.943Z" fill="url(#paint5_linear_37_145)"/>
<defs>
<filter id="filter0_i_37_145" x="0" y="0" width="351.197" height="319.963" filterUnits="userSpaceOnUse" color-interpolation-filters="sRGB">
<feFlood flood-opacity="0" result="BackgroundImageFix"/>
<feBlend mode="normal" in="SourceGraphic" in2="BackgroundImageFix" result="shape"/>
<feColorMatrix in="SourceAlpha" type="matrix" values="0 0 0 0 0 0 0 0 0 0 0 0 0 0 0 0 0 0 127 0" result="hardAlpha"/>
<feOffset dy="4"/>
<feGaussianBlur stdDeviation="2"/>
<feComposite in2="hardAlpha" operator="arithmetic" k2="-1" k3="1"/>
<feColorMatrix type="matrix" values="0 0 0 0 1 0 0 0 0 1 0 0 0 0 1 0 0 0 0.43 0"/>
<feBlend mode="normal" in2="shape" result="effect1_innerShadow_37_145"/>
</filter>
<filter id="filter1_i_37_145" x="0.835938" y="82.1617" width="350.361" height="237.802" filterUnits="userSpaceOnUse" color-interpolation-filters="sRGB">
<feFlood flood-opacity="0" result="BackgroundImageFix"/>
<feBlend mode="normal" in="SourceGraphic" in2="BackgroundImageFix" result="shape"/>
<feColorMatrix in="SourceAlpha" type="matrix" values="0 0 0 0 0 0 0 0 0 0 0 0 0 0 0 0 0 0 127 0" result="hardAlpha"/>
<feOffset dy="4"/>
<feGaussianBlur stdDeviation="2"/>
<feComposite in2="hardAlpha" operator="arithmetic" k2="-1" k3="1"/>
<feColorMatrix type="matrix" values="0 0 0 0 1 0 0 0 0 1 0 0 0 0 1 0 0 0 0.43 0"/>
<feBlend mode="normal" in2="shape" result="effect1_innerShadow_37_145"/>
</filter>
<linearGradient id="paint0_linear_37_145" x1="174.408" y1="0" x2="174.408" y2="315.963" gradientUnits="userSpaceOnUse">
<stop stop-color="#0051FF"/>
<stop offset="1" stop-color="#0051FF"/>
</linearGradient>
<linearGradient id="paint1_linear_37_145" x1="176.38" y1="315.963" x2="175.355" y2="85.2031" gradientUnits="userSpaceOnUse">
<stop stop-color="#0055FF"/>
<stop offset="1" stop-color="#00B3FF"/>
</linearGradient>
<linearGradient id="paint2_linear_37_145" x1="175.636" y1="126.3" x2="175.241" y2="271.823" gradientUnits="userSpaceOnUse">
<stop stop-color="#0051FF"/>
<stop offset="1" stop-color="#0D00FF"/>
</linearGradient>
<linearGradient id="paint3_linear_37_145" x1="175.636" y1="126.3" x2="175.241" y2="271.823" gradientUnits="userSpaceOnUse">
<stop stop-color="#0051FF"/>
<stop offset="1" stop-color="#0D00FF"/>
</linearGradient>
<linearGradient id="paint4_linear_37_145" x1="175.636" y1="126.3" x2="175.241" y2="271.823" gradientUnits="userSpaceOnUse">
<stop stop-color="#0051FF"/>
<stop offset="1" stop-color="#0D00FF"/>
</linearGradient>
<linearGradient id="paint5_linear_37_145" x1="175.636" y1="126.3" x2="175.241" y2="271.823" gradientUnits="userSpaceOnUse">
<stop stop-color="#0051FF"/>
<stop offset="1" stop-color="#0D00FF"/>
</linearGradient>
</defs>
</svg>
